<mxfile host="Electron" modified="2024-07-18T05:33:54.437Z" agent="Mozilla/5.0 (Macintosh; Intel Mac OS X 10_15_7) AppleWebKit/537.36 (KHTML, like Gecko) draw.io/24.1.0 Chrome/120.0.6099.109 Electron/28.1.0 Safari/537.36" etag="XLwERAv-TQo1G5NsjULU" version="24.1.0" type="device">
  <diagram name="第 1 页" id="yQPPcDsoONP0aH9y3xgm">
    <mxGraphModel dx="1327" dy="953" grid="0" gridSize="10" guides="1" tooltips="1" connect="1" arrows="1" fold="1" page="0" pageScale="1" pageWidth="827" pageHeight="1169" math="0" shadow="0">
      <root>
        <mxCell id="0" />
        <mxCell id="1" parent="0" />
        <mxCell id="m_YhYQAPbAPBu7dRQ-wr-42" value="模型" style="rounded=0;whiteSpace=wrap;html=1;align=left;verticalAlign=top;fontFamily=Nunito;labelBackgroundColor=none;fillColor=none;fontSize=13;strokeColor=#0F8B8D;fontColor=#143642;" parent="1" vertex="1">
          <mxGeometry x="80" y="470" width="640" height="90" as="geometry" />
        </mxCell>
        <mxCell id="m_YhYQAPbAPBu7dRQ-wr-43" value="模型参数" style="rounded=0;whiteSpace=wrap;html=1;align=left;verticalAlign=top;fontFamily=Nunito;labelBackgroundColor=none;fillColor=none;fontSize=13;strokeColor=#0F8B8D;fontColor=#143642;" parent="1" vertex="1">
          <mxGeometry x="90" y="502" width="190" height="50" as="geometry" />
        </mxCell>
        <mxCell id="m_YhYQAPbAPBu7dRQ-wr-15" value="模型" style="rounded=0;whiteSpace=wrap;html=1;align=left;verticalAlign=top;fontFamily=Nunito;labelBackgroundColor=none;fillColor=none;fontSize=13;strokeColor=#0F8B8D;fontColor=#143642;" parent="1" vertex="1">
          <mxGeometry x="80" y="270" width="640" height="90" as="geometry" />
        </mxCell>
        <mxCell id="m_YhYQAPbAPBu7dRQ-wr-1" value="模型参数" style="rounded=0;whiteSpace=wrap;html=1;align=left;verticalAlign=top;fontFamily=Nunito;labelBackgroundColor=none;fillColor=none;fontSize=13;strokeColor=#0F8B8D;fontColor=#143642;" parent="1" vertex="1">
          <mxGeometry x="90" y="302" width="190" height="50" as="geometry" />
        </mxCell>
        <mxCell id="m_YhYQAPbAPBu7dRQ-wr-2" value="梯度" style="rounded=0;whiteSpace=wrap;html=1;align=left;verticalAlign=top;fontFamily=Nunito;labelBackgroundColor=none;fillColor=none;fontSize=13;strokeColor=#0F8B8D;fontColor=#143642;" parent="1" vertex="1">
          <mxGeometry x="285" y="302" width="210" height="50" as="geometry" />
        </mxCell>
        <mxCell id="m_YhYQAPbAPBu7dRQ-wr-3" value="优化器参数" style="rounded=0;whiteSpace=wrap;html=1;align=left;verticalAlign=top;fontFamily=Nunito;labelBackgroundColor=none;fillColor=none;fontSize=13;strokeColor=#0F8B8D;fontColor=#143642;" parent="1" vertex="1">
          <mxGeometry x="500" y="302" width="210" height="50" as="geometry" />
        </mxCell>
        <mxCell id="m_YhYQAPbAPBu7dRQ-wr-4" value="cuda kernel" style="rounded=0;whiteSpace=wrap;html=1;align=left;verticalAlign=top;fontFamily=Nunito;labelBackgroundColor=none;fillColor=none;fontSize=13;strokeColor=#0F8B8D;fontColor=#143642;" parent="1" vertex="1">
          <mxGeometry x="730" y="270" width="140" height="90" as="geometry" />
        </mxCell>
        <mxCell id="m_YhYQAPbAPBu7dRQ-wr-5" value="batch大小" style="rounded=0;whiteSpace=wrap;html=1;align=left;verticalAlign=top;fontFamily=Nunito;labelBackgroundColor=none;fillColor=none;fontSize=13;strokeColor=#0F8B8D;fontColor=#143642;" parent="1" vertex="1">
          <mxGeometry x="880" y="270" width="340" height="90" as="geometry" />
        </mxCell>
        <mxCell id="m_YhYQAPbAPBu7dRQ-wr-6" value="参数所需内存" style="rounded=1;whiteSpace=wrap;html=1;fontFamily=Nunito;labelBackgroundColor=none;fillColor=none;fontSize=13;strokeColor=#0F8B8D;fontColor=#143642;" parent="1" vertex="1">
          <mxGeometry x="185" y="328" width="90" height="20" as="geometry" />
        </mxCell>
        <mxCell id="m_YhYQAPbAPBu7dRQ-wr-7" value="参数量" style="rounded=1;whiteSpace=wrap;html=1;fontFamily=Nunito;labelBackgroundColor=none;fillColor=none;fontSize=13;strokeColor=#0F8B8D;fontColor=#143642;" parent="1" vertex="1">
          <mxGeometry x="105" y="328" width="70" height="20" as="geometry" />
        </mxCell>
        <mxCell id="m_YhYQAPbAPBu7dRQ-wr-8" value="精度" style="rounded=1;whiteSpace=wrap;html=1;fontFamily=Nunito;labelBackgroundColor=none;fillColor=none;fontSize=13;strokeColor=#0F8B8D;fontColor=#143642;strokeWidth=0.7;" parent="1" vertex="1">
          <mxGeometry x="195" y="305" width="70" height="20" as="geometry" />
        </mxCell>
        <mxCell id="m_YhYQAPbAPBu7dRQ-wr-9" value="梯度参数所需内存" style="rounded=1;whiteSpace=wrap;html=1;fontFamily=Nunito;labelBackgroundColor=none;fillColor=none;fontSize=13;strokeColor=#0F8B8D;fontColor=#143642;" parent="1" vertex="1">
          <mxGeometry x="380" y="328" width="110" height="20" as="geometry" />
        </mxCell>
        <mxCell id="m_YhYQAPbAPBu7dRQ-wr-10" value="参数量" style="rounded=1;whiteSpace=wrap;html=1;fontFamily=Nunito;labelBackgroundColor=none;fillColor=none;fontSize=13;strokeColor=#0F8B8D;fontColor=#143642;" parent="1" vertex="1">
          <mxGeometry x="300" y="328" width="70" height="20" as="geometry" />
        </mxCell>
        <mxCell id="m_YhYQAPbAPBu7dRQ-wr-11" value="精度" style="rounded=1;whiteSpace=wrap;html=1;fontFamily=Nunito;labelBackgroundColor=none;fillColor=none;fontSize=13;strokeColor=#0F8B8D;fontColor=#143642;strokeWidth=0.7;" parent="1" vertex="1">
          <mxGeometry x="400" y="305" width="70" height="20" as="geometry" />
        </mxCell>
        <mxCell id="m_YhYQAPbAPBu7dRQ-wr-12" value="模型参数" style="rounded=0;whiteSpace=wrap;html=1;align=center;verticalAlign=middle;fontFamily=Nunito;labelBackgroundColor=none;fillColor=none;fontSize=13;strokeColor=#0F8B8D;fontColor=#143642;" parent="1" vertex="1">
          <mxGeometry x="515" y="328" width="90" height="20" as="geometry" />
        </mxCell>
        <mxCell id="m_YhYQAPbAPBu7dRQ-wr-14" value="&lt;span style=&quot;color: rgb(62, 62, 62); font-size: 13px; text-align: left;&quot;&gt;1.3GB&lt;/span&gt;" style="rounded=1;whiteSpace=wrap;html=1;fontFamily=Nunito;labelBackgroundColor=none;fillColor=none;fontSize=13;strokeColor=#0F8B8D;fontColor=#143642;" parent="1" vertex="1">
          <mxGeometry x="750" y="310" width="100" height="30" as="geometry" />
        </mxCell>
        <mxCell id="m_YhYQAPbAPBu7dRQ-wr-17" value="中间计算参数量" style="rounded=1;whiteSpace=wrap;html=1;fontFamily=Nunito;labelBackgroundColor=none;fillColor=none;fontSize=13;strokeColor=#0F8B8D;fontColor=#143642;" parent="1" vertex="1">
          <mxGeometry x="890" y="310" width="110" height="30" as="geometry" />
        </mxCell>
        <mxCell id="m_YhYQAPbAPBu7dRQ-wr-18" value="参数所需内存" style="rounded=1;whiteSpace=wrap;html=1;fontFamily=Nunito;labelBackgroundColor=none;fillColor=none;fontSize=13;strokeColor=#0F8B8D;fontColor=#143642;" parent="1" vertex="1">
          <mxGeometry x="1010" y="310" width="90" height="30" as="geometry" />
        </mxCell>
        <mxCell id="m_YhYQAPbAPBu7dRQ-wr-19" value="batch size" style="rounded=1;whiteSpace=wrap;html=1;fontFamily=Nunito;labelBackgroundColor=none;fillColor=none;fontSize=13;strokeColor=#0F8B8D;fontColor=#143642;" parent="1" vertex="1">
          <mxGeometry x="1110" y="310" width="90" height="30" as="geometry" />
        </mxCell>
        <mxCell id="m_YhYQAPbAPBu7dRQ-wr-21" value="&lt;span style=&quot;font-size: 13px;&quot;&gt;Llama-6B&lt;/span&gt;&lt;div style=&quot;font-size: 13px;&quot;&gt;&lt;div style=&quot;font-size: 13px;&quot;&gt;&lt;span style=&quot;font-size: 13px;&quot;&gt;精度&lt;/span&gt;&lt;span style=&quot;font-size: 13px;&quot;&gt;=int8 8 bit 1 byte&lt;/span&gt;&lt;font style=&quot;font-size: 13px;&quot;&gt;&lt;span style=&quot;font-size: 13px;&quot;&gt;&lt;br style=&quot;font-size: 13px;&quot;&gt;&lt;/span&gt;&lt;/font&gt;&lt;/div&gt;&lt;div style=&quot;font-size: 13px;&quot;&gt;&lt;span style=&quot;font-size: 13px;&quot;&gt;batch size=50&lt;/span&gt;&lt;span style=&quot;font-size: 13px;&quot;&gt;&lt;br style=&quot;font-size: 13px;&quot;&gt;&lt;/span&gt;&lt;/div&gt;&lt;/div&gt;" style="rounded=0;whiteSpace=wrap;html=1;align=left;verticalAlign=top;strokeColor=none;fontFamily=Nunito;labelBackgroundColor=none;fillColor=none;fontSize=13;fontColor=#143642;fontStyle=1" parent="1" vertex="1">
          <mxGeometry x="80" y="390" width="200" height="60" as="geometry" />
        </mxCell>
        <mxCell id="m_YhYQAPbAPBu7dRQ-wr-28" value="1 byte" style="rounded=1;whiteSpace=wrap;html=1;fontFamily=Nunito;labelBackgroundColor=none;fillColor=none;fontSize=13;strokeColor=#0F8B8D;fontColor=#143642;" parent="1" vertex="1">
          <mxGeometry x="185" y="528" width="90" height="20" as="geometry" />
        </mxCell>
        <mxCell id="m_YhYQAPbAPBu7dRQ-wr-29" value="6B" style="rounded=1;whiteSpace=wrap;html=1;fontFamily=Nunito;labelBackgroundColor=none;fillColor=none;fontSize=13;strokeColor=#0F8B8D;fontColor=#143642;" parent="1" vertex="1">
          <mxGeometry x="105" y="528" width="70" height="20" as="geometry" />
        </mxCell>
        <mxCell id="m_YhYQAPbAPBu7dRQ-wr-41" value="模型参数" style="rounded=0;whiteSpace=wrap;html=1;align=center;verticalAlign=middle;fontFamily=Nunito;labelBackgroundColor=none;fillColor=none;fontSize=13;strokeColor=#0F8B8D;fontColor=#143642;" parent="1" vertex="1">
          <mxGeometry x="615" y="328" width="90" height="20" as="geometry" />
        </mxCell>
        <mxCell id="m_YhYQAPbAPBu7dRQ-wr-44" value="梯度" style="rounded=0;whiteSpace=wrap;html=1;align=left;verticalAlign=top;fontFamily=Nunito;labelBackgroundColor=none;fillColor=none;fontSize=13;strokeColor=#0F8B8D;fontColor=#143642;" parent="1" vertex="1">
          <mxGeometry x="285" y="502" width="210" height="50" as="geometry" />
        </mxCell>
        <mxCell id="m_YhYQAPbAPBu7dRQ-wr-45" value="优化器参数" style="rounded=0;whiteSpace=wrap;html=1;align=left;verticalAlign=top;fontFamily=Nunito;labelBackgroundColor=none;fillColor=none;fontSize=13;strokeColor=#0F8B8D;fontColor=#143642;" parent="1" vertex="1">
          <mxGeometry x="500" y="502" width="210" height="50" as="geometry" />
        </mxCell>
        <mxCell id="m_YhYQAPbAPBu7dRQ-wr-46" value="cuda kernel" style="rounded=0;whiteSpace=wrap;html=1;align=left;verticalAlign=top;fontFamily=Nunito;labelBackgroundColor=none;fillColor=none;fontSize=13;strokeColor=#0F8B8D;fontColor=#143642;" parent="1" vertex="1">
          <mxGeometry x="730" y="470" width="140" height="90" as="geometry" />
        </mxCell>
        <mxCell id="m_YhYQAPbAPBu7dRQ-wr-47" value="batch大小" style="rounded=0;whiteSpace=wrap;html=1;align=left;verticalAlign=top;fontFamily=Nunito;labelBackgroundColor=none;fillColor=none;fontSize=13;strokeColor=#0F8B8D;fontColor=#143642;" parent="1" vertex="1">
          <mxGeometry x="880" y="470" width="340" height="90" as="geometry" />
        </mxCell>
        <mxCell id="m_YhYQAPbAPBu7dRQ-wr-50" value="int8" style="rounded=1;whiteSpace=wrap;html=1;fontFamily=Nunito;labelBackgroundColor=none;fillColor=none;fontSize=13;strokeColor=#0F8B8D;fontColor=#143642;strokeWidth=0.7;" parent="1" vertex="1">
          <mxGeometry x="195" y="505" width="70" height="20" as="geometry" />
        </mxCell>
        <mxCell id="m_YhYQAPbAPBu7dRQ-wr-51" value="1 byte" style="rounded=1;whiteSpace=wrap;html=1;fontFamily=Nunito;labelBackgroundColor=none;fillColor=none;fontSize=13;strokeColor=#0F8B8D;fontColor=#143642;" parent="1" vertex="1">
          <mxGeometry x="380" y="528" width="110" height="20" as="geometry" />
        </mxCell>
        <mxCell id="m_YhYQAPbAPBu7dRQ-wr-52" value="6B" style="rounded=1;whiteSpace=wrap;html=1;fontFamily=Nunito;labelBackgroundColor=none;fillColor=none;fontSize=13;strokeColor=#0F8B8D;fontColor=#143642;" parent="1" vertex="1">
          <mxGeometry x="300" y="528" width="70" height="20" as="geometry" />
        </mxCell>
        <mxCell id="m_YhYQAPbAPBu7dRQ-wr-53" value="int8" style="rounded=1;whiteSpace=wrap;html=1;fontFamily=Nunito;labelBackgroundColor=none;fillColor=none;fontSize=13;strokeColor=#0F8B8D;fontColor=#143642;strokeWidth=0.7;" parent="1" vertex="1">
          <mxGeometry x="400" y="505" width="70" height="20" as="geometry" />
        </mxCell>
        <mxCell id="m_YhYQAPbAPBu7dRQ-wr-54" value="6GB" style="rounded=0;whiteSpace=wrap;html=1;align=center;verticalAlign=middle;fontFamily=Nunito;labelBackgroundColor=none;fillColor=none;fontSize=13;strokeColor=#0F8B8D;fontColor=#143642;" parent="1" vertex="1">
          <mxGeometry x="515" y="528" width="90" height="20" as="geometry" />
        </mxCell>
        <mxCell id="m_YhYQAPbAPBu7dRQ-wr-55" value="&lt;span style=&quot;color: rgb(62, 62, 62); font-size: 13px; text-align: left;&quot;&gt;1.3GB&lt;/span&gt;" style="rounded=1;whiteSpace=wrap;html=1;fontFamily=Nunito;labelBackgroundColor=none;fillColor=none;fontSize=13;strokeColor=#0F8B8D;fontColor=#143642;" parent="1" vertex="1">
          <mxGeometry x="750" y="510" width="100" height="30" as="geometry" />
        </mxCell>
        <mxCell id="m_YhYQAPbAPBu7dRQ-wr-56" value="(4096+11008)x2048x32" style="rounded=1;whiteSpace=wrap;html=1;fontFamily=Nunito;labelBackgroundColor=none;fillColor=none;fontSize=13;strokeColor=#0F8B8D;fontColor=#143642;" parent="1" vertex="1">
          <mxGeometry x="890" y="510" width="180" height="30" as="geometry" />
        </mxCell>
        <mxCell id="m_YhYQAPbAPBu7dRQ-wr-57" value="1 byte" style="rounded=1;whiteSpace=wrap;html=1;fontFamily=Nunito;labelBackgroundColor=none;fillColor=none;fontSize=13;strokeColor=#0F8B8D;fontColor=#143642;" parent="1" vertex="1">
          <mxGeometry x="1080" y="510" width="60" height="30" as="geometry" />
        </mxCell>
        <mxCell id="m_YhYQAPbAPBu7dRQ-wr-58" value="50" style="rounded=1;whiteSpace=wrap;html=1;fontFamily=Nunito;labelBackgroundColor=none;fillColor=none;fontSize=13;strokeColor=#0F8B8D;fontColor=#143642;" parent="1" vertex="1">
          <mxGeometry x="1150" y="510" width="40" height="30" as="geometry" />
        </mxCell>
        <mxCell id="m_YhYQAPbAPBu7dRQ-wr-59" value="6GB" style="rounded=0;whiteSpace=wrap;html=1;align=center;verticalAlign=middle;fontFamily=Nunito;labelBackgroundColor=none;fillColor=none;fontSize=13;strokeColor=#0F8B8D;fontColor=#143642;" parent="1" vertex="1">
          <mxGeometry x="615" y="528" width="90" height="20" as="geometry" />
        </mxCell>
        <mxCell id="m_YhYQAPbAPBu7dRQ-wr-60" value="&lt;p style=&quot;margin: 0px; padding: 0px; outline: 0px; max-width: 100%; clear: both; min-height: 1em; font-size: 13px; box-sizing: border-box !important; overflow-wrap: break-word !important;&quot;&gt;&lt;span style=&quot;margin: 0px; padding: 0px; outline: 0px; max-width: 100%; font-size: 13px; color: rgb(62, 62, 62); box-sizing: border-box !important; overflow-wrap: break-word !important;&quot;&gt;LLaMA的架构：&lt;/span&gt;&lt;/p&gt;&lt;p style=&quot;margin: 0px; padding: 0px; outline: 0px; max-width: 100%; clear: both; min-height: 1em; font-size: 13px; box-sizing: border-box !important; overflow-wrap: break-word !important;&quot;&gt;&lt;span style=&quot;margin: 0px; padding: 0px; outline: 0px; max-width: 100%; font-size: 13px; color: rgb(62, 62, 62); box-sizing: border-box !important; overflow-wrap: break-word !important;&quot;&gt;hidden_size = 4096&lt;/span&gt;&lt;/p&gt;&lt;p style=&quot;margin: 0px; padding: 0px; outline: 0px; max-width: 100%; clear: both; min-height: 1em; font-size: 13px; box-sizing: border-box !important; overflow-wrap: break-word !important;&quot;&gt;&lt;span style=&quot;margin: 0px; padding: 0px; outline: 0px; max-width: 100%; font-size: 13px; color: rgb(62, 62, 62); box-sizing: border-box !important; overflow-wrap: break-word !important;&quot;&gt;intermediate_size =11008&lt;/span&gt;&lt;/p&gt;&lt;p style=&quot;margin: 0px; padding: 0px; outline: 0px; max-width: 100%; clear: both; min-height: 1em; font-size: 13px; box-sizing: border-box !important; overflow-wrap: break-word !important;&quot;&gt;&lt;span style=&quot;margin: 0px; padding: 0px; outline: 0px; max-width: 100%; font-size: 13px; color: rgb(62, 62, 62); box-sizing: border-box !important; overflow-wrap: break-word !important;&quot;&gt;num_hidden_layers = 32&lt;/span&gt;&lt;/p&gt;&lt;p style=&quot;margin: 0px; padding: 0px; outline: 0px; max-width: 100%; clear: both; min-height: 1em; font-size: 13px; box-sizing: border-box !important; overflow-wrap: break-word !important;&quot;&gt;&lt;span style=&quot;margin: 0px; padding: 0px; outline: 0px; max-width: 100%; font-size: 13px; color: rgb(62, 62, 62); box-sizing: border-box !important; overflow-wrap: break-word !important;&quot;&gt;context_length = 2048&lt;/span&gt;&lt;/p&gt;" style="whiteSpace=wrap;html=1;align=left;verticalAlign=top;fontFamily=Nunito;strokeColor=none;labelBackgroundColor=none;fillColor=none;fontSize=13;fontColor=#143642;" parent="1" vertex="1">
          <mxGeometry x="880" y="370" width="340" height="90" as="geometry" />
        </mxCell>
        <mxCell id="m_YhYQAPbAPBu7dRQ-wr-61" value="990MB x 50 = 48.3GB" style="text;html=1;align=center;verticalAlign=middle;resizable=0;points=[];autosize=1;strokeColor=none;fillColor=none;labelBackgroundColor=none;fontFamily=Nunito;fontSize=13;fontColor=#143642;" parent="1" vertex="1">
          <mxGeometry x="1060" y="470" width="160" height="30" as="geometry" />
        </mxCell>
        <mxCell id="m_YhYQAPbAPBu7dRQ-wr-62" value="6GB" style="text;html=1;align=right;verticalAlign=middle;resizable=0;points=[];autosize=1;strokeColor=none;fillColor=none;labelBackgroundColor=none;fontFamily=Nunito;fontSize=13;fontColor=#143642;" parent="1" vertex="1">
          <mxGeometry x="230" y="475" width="50" height="30" as="geometry" />
        </mxCell>
        <mxCell id="m_YhYQAPbAPBu7dRQ-wr-63" value="6GB" style="text;html=1;align=right;verticalAlign=middle;resizable=0;points=[];autosize=1;strokeColor=none;fillColor=none;labelBackgroundColor=none;fontFamily=Nunito;fontSize=13;fontColor=#143642;" parent="1" vertex="1">
          <mxGeometry x="445" y="475" width="50" height="30" as="geometry" />
        </mxCell>
        <mxCell id="m_YhYQAPbAPBu7dRQ-wr-64" value="12GB" style="text;html=1;align=right;verticalAlign=middle;resizable=0;points=[];autosize=1;strokeColor=none;fillColor=none;labelBackgroundColor=none;fontFamily=Nunito;fontSize=13;fontColor=#143642;" parent="1" vertex="1">
          <mxGeometry x="650" y="475" width="60" height="30" as="geometry" />
        </mxCell>
        <mxCell id="m_YhYQAPbAPBu7dRQ-wr-67" value="&lt;strong style=&quot;font-family: Verdana; font-size: 13px; margin: 0px; padding: 0px; outline: 0px; max-width: 100%; box-sizing: border-box !important; overflow-wrap: break-word !important;&quot;&gt;&lt;span style=&quot;margin: 0px; padding: 0px; outline: 0px; max-width: 100%; color: rgb(62, 62, 62); box-sizing: border-box !important; overflow-wrap: break-word !important; font-size: 13px;&quot;&gt;25.3GB + 48.3GB = 73.6GB&lt;/span&gt;&lt;/strong&gt;" style="rounded=0;whiteSpace=wrap;html=1;strokeColor=none;align=right;fontFamily=Nunito;fontSize=13;verticalAlign=middle;fontStyle=0;fillColor=none;labelBackgroundColor=none;fontColor=#143642;" parent="1" vertex="1">
          <mxGeometry x="265" y="415" width="240" height="20" as="geometry" />
        </mxCell>
        <mxCell id="6YiAprTeO9Km7Q9i2Cix-1" value="模型显存计算" style="text;html=1;align=right;verticalAlign=top;resizable=0;points=[];autosize=1;strokeColor=none;fillColor=none;fontFamily=Nunito;fontSize=20;labelBackgroundColor=none;fontColor=#143642;" parent="1" vertex="1">
          <mxGeometry x="1080" y="220" width="140" height="40" as="geometry" />
        </mxCell>
        <mxCell id="6YiAprTeO9Km7Q9i2Cix-3" value="&lt;span style=&quot;font-size: 13px; text-align: left;&quot;&gt;&amp;nbsp;A100（80GB RAM）&lt;/span&gt;" style="rounded=0;whiteSpace=wrap;html=1;strokeColor=none;fillColor=none;fontColor=#143642;fontFamily=Nunito;fontSize=13;fontStyle=1;labelBackgroundColor=none;" parent="1" vertex="1">
          <mxGeometry x="530" y="395" width="190" height="60" as="geometry" />
        </mxCell>
      </root>
    </mxGraphModel>
  </diagram>
</mxfile>
